# xmcd
# 
# Track frame offsets:
#	150
#	17145
#	33985
#	46782
#	67305
#	84390
#	95820
#	110437
#	128260
#	143730
#	158227
#
# Disc length: 2333 seconds
#
# Revision: 1
# Processed by: cddbd v1.4PL0 Copyright (c) Steve Scherf et al.
# Submitted via: Audio-CD-Archiv 2.10.435
#
DISCID=8b091b0b
DTITLE=Rosie Flores - After the Farm
DYEAR=1900
DGENRE=country
TTITLE0=More to offer
TTITLE1=Price you pay
TTITLE2=Blue highway
TTITLE3=This loneliness
TTITLE4=Sold on you
TTITLE5=That's me
TTITLE6=Goin' through the motions
TTITLE7=Oh Heartache
TTITLE8=Dream dream blue
TTITLE9=Dent in my heart
TTITLE10=West Texas Plain
EXTD=
EXTT0=
EXTT1=
EXTT2=
EXTT3=
EXTT4=
EXTT5=
EXTT6=
EXTT7=
EXTT8=
EXTT9=
EXTT10=
PLAYORDER=
